<svg id="Capa_1" enable-background="new 0 0 512 512" height="512" viewBox="0 0 512 512" width="512" xmlns="http://www.w3.org/2000/svg"><g><path d="m349.405 226c-23.135 0-45.599 6.602-64.963 19.093-16.117 10.395-29.448 24.418-38.977 40.907h-176.465c-4.816 0-9.34 2.314-12.16 6.218l-32.5 45c-3.787 5.242-3.787 12.322 0 17.564l32.5 45c2.82 3.904 7.344 6.218 12.16 6.218h30.241c5 0 9.672-2.492 12.457-6.645l8.588-12.806 8.589 12.806c2.785 4.152 7.457 6.645 12.457 6.645h37.908c5.001 0 9.672-2.492 12.458-6.645l8.588-12.806 8.589 12.806c2.785 4.152 7.457 6.645 12.458 6.645h24.132c9.528 16.489 22.86 30.512 38.977 40.907 19.364 12.49 41.828 19.093 64.963 19.093 66.168 0 120-53.832 120-120s-53.832-120-120-120z" fill="#ffe470"/><path d="m56.84 399.782c2.82 3.904 7.344 6.218 12.16 6.218h30.241c5 0 9.672-2.492 12.457-6.645l8.588-12.806 8.589 12.806c2.785 4.152 7.457 6.645 12.457 6.645h37.908c5.001 0 9.672-2.492 12.458-6.645l8.588-12.806 8.589 12.806c2.785 4.152 7.457 6.645 12.458 6.645h24.132c9.528 16.489 22.86 30.512 38.977 40.907 19.364 12.49 41.828 19.093 64.963 19.093 66.168 0 120-53.832 120-120h-447.905c0 3.08.946 6.161 2.84 8.782z" fill="#fabe2c"/><path d="m379 376c-8.284 0-15-6.716-15-15v-30c0-8.284 6.716-15 15-15s15 6.716 15 15v30c0 8.284-6.716 15-15 15z" fill="#4FD1C5"/><path d="m364 346v15c0 8.284 6.716 15 15 15s15-6.716 15-15v-15z" fill="#38B2AC"/><path d="m497 46h-482c-8.284 0-15 6.716-15 15v120c0 8.284 6.716 15 15 15h482c8.284 0 15-6.716 15-15v-120c0-8.284-6.716-15-15-15z" fill="#4FD1C5"/><path d="m0 121v60c0 8.284 6.716 15 15 15h482c8.284 0 15-6.716 15-15v-60z" fill="#4FD1C5"/><circle cx="136" cy="121" fill="#4A5568" r="15"/><path d="m136 136c8.284 0 15-6.716 15-15h-30c0 8.284 6.716 15 15 15z" fill="#4A5568"/><circle cx="196" cy="121" fill="#4A5568" r="15"/><path d="m196 136c8.284 0 15-6.716 15-15h-30c0 8.284 6.716 15 15 15z" fill="#4A5568"/><circle cx="256" cy="121" fill="#4A5568" r="15"/><path d="m256 136c8.284 0 15-6.716 15-15h-30c0 8.284 6.716 15 15 15z" fill="#4A5568"/><circle cx="316" cy="121" fill="#4A5568" r="15"/><path d="m316 136c8.284 0 15-6.716 15-15h-30c0 8.284 6.716 15 15 15z" fill="#4A5568"/><circle cx="376" cy="121" fill="#4A5568" r="15"/><path d="m376 136c8.284 0 15-6.716 15-15h-30c0 8.284 6.716 15 15 15z" fill="#4A5568"/></g></svg>